<?xml version="1.0" standalone="no"?>
<!DOCTYPE svg PUBLIC "-//W3C//DTD SVG 20010904//EN"
 "http://www.w3.org/TR/2001/REC-SVG-20010904/DTD/svg10.dtd">
<svg version="1.0" xmlns="http://www.w3.org/2000/svg"
 width="256.000000pt" height="256.000000pt" viewBox="0 0 256.000000 256.000000"
 preserveAspectRatio="xMidYMid meet">
<metadata>
Created by potrace 1.11, written by Peter Selinger 2001-2013
</metadata>
<g transform="translate(0.000000,256.000000) scale(0.100000,-0.100000)"
fill="#000000" stroke="none">
<path d="M1150 2446 c-91 -28 -170 -105 -205 -198 -23 -63 -17 -176 13 -235
59 -115 167 -179 295 -174 138 4 262 118 284 262 21 134 -46 263 -169 325 -56
28 -161 38 -218 20z m164 -164 c44 -26 68 -65 74 -120 16 -170 -215 -238 -289
-84 -68 139 82 282 215 204z"/>
<path d="M666 1613 c-66 -23 -147 -99 -177 -165 -34 -79 -33 -184 4 -259 115
-235 439 -236 553 -2 39 78 39 184 0 265 -29 62 -82 116 -148 149 -58 30 -165
35 -232 12z m194 -164 c60 -45 81 -127 49 -194 -58 -122 -231 -119 -282 5 -35
83 15 190 98 213 34 9 107 -4 135 -24z"/>
<path d="M1652 1615 c-80 -25 -142 -80 -184 -165 -33 -64 -32 -195 0 -262 38
-76 89 -121 192 -168 8 -4 42 -8 75 -9 238 -9 393 249 278 460 -69 127 -221
188 -361 144z m179 -162 c38 -22 69 -83 69 -132 0 -114 -113 -188 -217 -141
-59 26 -87 72 -88 141 0 49 4 62 31 96 17 21 46 43 65 50 40 14 103 8 140 -14z"/>
<path d="M275 760 c-93 -22 -172 -87 -215 -175 -52 -108 -23 -262 65 -348 63
-61 117 -82 215 -82 98 0 149 20 214 82 61 59 91 133 90 223 -1 86 -22 141
-78 206 -65 76 -195 118 -291 94z m151 -173 c90 -60 91 -195 2 -259 -25 -17
-46 -23 -88 -23 -66 0 -111 27 -139 83 -70 143 92 286 225 199z"/>
<path d="M1201 754 c-152 -41 -248 -199 -216 -355 29 -145 150 -249 292 -249
156 0 278 98 308 249 45 223 -164 416 -384 355z m161 -160 c103 -52 100 -222
-6 -273 -53 -26 -89 -26 -141 -1 -49 24 -85 81 -85 135 0 122 121 194 232 139z"/>
<path d="M2147 755 c-64 -17 -120 -56 -158 -108 -48 -66 -61 -105 -62 -187 -1
-91 30 -168 89 -224 65 -62 117 -81 214 -81 74 0 92 4 140 28 106 55 172 173
165 294 -11 196 -197 329 -388 278z m153 -158 c104 -50 113 -200 17 -271 -42
-31 -130 -29 -176 3 -38 28 -73 96 -66 132 13 65 18 78 48 106 52 50 115 60
177 30z"/>
</g>
</svg>
