<svg width="10" height="20" viewBox="0 0 10 20" fill="none" xmlns="http://www.w3.org/2000/svg">
<path d="M2.35087 3.87335C2.35087 4.37735 2.35087 6.62694 2.35087 6.62694H0.333496V9.99405H2.35087V19.9999H6.49499V9.99433H9.27588C9.27588 9.99433 9.53633 8.37982 9.66257 6.61453C9.30062 6.61453 6.51066 6.61453 6.51066 6.61453C6.51066 6.61453 6.51066 4.65565 6.51066 4.3123C6.51066 3.9682 6.96249 3.50535 7.40907 3.50535C7.85482 3.50535 8.79559 3.50535 9.66694 3.50535C9.66694 3.04691 9.66694 1.46291 9.66694 1.20278e-08C8.50371 1.20278e-08 7.18034 1.20278e-08 6.59701 1.20278e-08C2.24843 -0.000232484 2.35087 3.37022 2.35087 3.87335Z" fill="#4D6FAF"/>
</svg>
