<svg width="60" height="19" viewBox="0 0 60 19" fill="none" xmlns="http://www.w3.org/2000/svg">
<path d="M29.46 11.704H32.304V13H27.768V4.528H29.46V11.704ZM36.263 4.528V9.496C36.263 10.16 36.407 10.66 36.695 10.996C36.991 11.324 37.415 11.488 37.967 11.488C38.511 11.488 38.927 11.324 39.215 10.996C39.511 10.66 39.659 10.16 39.659 9.496V4.528H41.339V9.496C41.339 10.28 41.191 10.944 40.895 11.488C40.607 12.024 40.203 12.424 39.683 12.688C39.171 12.952 38.587 13.084 37.931 13.084C36.915 13.084 36.103 12.78 35.495 12.172C34.887 11.564 34.583 10.672 34.583 9.496V4.528H36.263ZM53.2744 4.624V13H51.5944V7.156L49.4464 13H47.9824L45.8344 7.18V13H44.1424V4.624H46.1944L48.7384 10.924L51.2344 4.624H53.2744ZM57.8184 4.528V13H56.1264V4.528H57.8184Z" fill="black"/>
<path d="M9.60228 4.9414C9.11664 4.9414 8.64191 4.79649 8.23812 4.52501C7.83432 4.25353 7.5196 3.86766 7.33376 3.4162C7.14791 2.96473 7.09929 2.46796 7.19403 1.98869C7.28878 1.50942 7.52263 1.06919 7.86603 0.723652C8.20943 0.378118 8.64694 0.142807 9.12325 0.047475C9.59955 -0.0478575 10.0933 0.00107022 10.5419 0.188072C10.9906 0.375073 11.3741 0.691748 11.6439 1.09805C11.9137 1.50436 12.0577 1.98204 12.0577 2.4707C12.0559 3.12541 11.7966 3.75278 11.3365 4.21574C10.8764 4.67869 10.2529 4.93958 9.60228 4.9414ZM9.60228 1.20774C9.35403 1.20774 9.11136 1.28181 8.90495 1.42059C8.69855 1.55937 8.53767 1.75661 8.44267 1.98739C8.34767 2.21816 8.32282 2.4721 8.37125 2.71709C8.41968 2.96208 8.53922 3.18712 8.71475 3.36374C8.89029 3.54037 9.11393 3.66066 9.35741 3.70939C9.60088 3.75812 9.85325 3.73311 10.0826 3.63752C10.3119 3.54193 10.508 3.38005 10.6459 3.17236C10.7838 2.96467 10.8574 2.72049 10.8574 2.4707C10.8503 2.14055 10.7149 1.82636 10.4802 1.59545C10.2456 1.36454 9.93046 1.23527 9.60228 1.23535V1.20774Z" fill="black"/>
<path d="M5.87801 11.539C5.39267 11.5377 4.91861 11.3916 4.51572 11.1193C4.11283 10.847 3.79918 10.4606 3.61439 10.0091C3.4296 9.55749 3.38195 9.06093 3.47746 8.58212C3.57298 8.10331 3.80738 7.66372 4.15104 7.31887C4.49471 6.97403 4.93224 6.7394 5.40836 6.64463C5.88447 6.54985 6.37783 6.59918 6.8261 6.78639C7.27437 6.97359 7.65745 7.29027 7.92695 7.69642C8.19645 8.10257 8.34029 8.57998 8.34029 9.06835C8.33848 9.72425 8.07826 10.3527 7.61669 10.8158C7.15512 11.279 6.52986 11.539 5.87801 11.539ZM5.87801 7.80539C5.62977 7.80539 5.3871 7.87946 5.18069 8.01824C4.97428 8.15701 4.8134 8.35426 4.71841 8.58503C4.62341 8.81581 4.59855 9.06975 4.64698 9.31474C4.69541 9.55973 4.81495 9.78476 4.99049 9.96139C5.16602 10.138 5.38967 10.2583 5.63314 10.307C5.87662 10.3558 6.12899 10.3308 6.35833 10.2352C6.58768 10.1396 6.78371 9.9777 6.92163 9.77001C7.05954 9.56232 7.13316 9.31814 7.13316 9.06835C7.13316 8.73339 7.00092 8.41215 6.76553 8.1753C6.53015 7.93845 6.2109 7.80539 5.87801 7.80539Z" fill="black"/>
<path d="M13.69 11.5391C13.2044 11.5391 12.7297 11.3941 12.3259 11.1227C11.9221 10.8512 11.6074 10.4653 11.4215 10.0139C11.2357 9.56239 11.1871 9.06561 11.2818 8.58635C11.3765 8.10708 11.6104 7.66684 11.9538 7.32131C12.2972 6.97577 12.7347 6.74046 13.211 6.64513C13.6873 6.5498 14.181 6.59873 14.6297 6.78573C15.0784 6.97273 15.4619 7.28941 15.7317 7.69571C16.0015 8.10201 16.1455 8.5797 16.1455 9.06836C16.1437 9.72307 15.8844 10.3504 15.4243 10.8134C14.9642 11.2763 14.3407 11.5372 13.69 11.5391ZM13.69 7.8054C13.4418 7.8054 13.1991 7.87947 12.9927 8.01825C12.7863 8.15702 12.6254 8.35427 12.5304 8.58504C12.4354 8.81582 12.4106 9.06976 12.459 9.31475C12.5074 9.55974 12.627 9.78477 12.8025 9.9614C12.9781 10.138 13.2017 10.2583 13.4452 10.307C13.6887 10.3558 13.941 10.3308 14.1704 10.2352C14.3997 10.1396 14.5957 9.97771 14.7337 9.77002C14.8716 9.56232 14.9452 9.31814 14.9452 9.06836C14.9452 8.7334 14.813 8.41216 14.5776 8.17531C14.3422 7.93846 14.0229 7.8054 13.69 7.8054Z" fill="black"/>
<path d="M9.99986 18.4199C9.51422 18.4199 9.03949 18.275 8.6357 18.0035C8.23191 17.732 7.91719 17.3462 7.73134 16.8947C7.5455 16.4432 7.49687 15.9465 7.59162 15.4672C7.68636 14.9879 7.92021 14.5477 8.26361 14.2022C8.60701 13.8566 9.04452 13.6213 9.52083 13.526C9.99714 13.4307 10.4908 13.4796 10.9395 13.6666C11.3882 13.8536 11.7717 14.1703 12.0415 14.5766C12.3113 14.9829 12.4553 15.4606 12.4553 15.9492C12.4535 16.6039 12.1942 17.2313 11.7341 17.6943C11.274 18.1572 10.6505 18.4181 9.99986 18.4199ZM9.99986 14.6863C9.75161 14.6863 9.50894 14.7603 9.30254 14.8991C9.09613 15.0379 8.93525 15.2351 8.84025 15.4659C8.74525 15.6967 8.7204 15.9506 8.76883 16.1956C8.81726 16.4406 8.9368 16.6656 9.11234 16.8423C9.28787 17.0189 9.51152 17.1392 9.75499 17.1879C9.99847 17.2366 10.2508 17.2116 10.4802 17.116C10.7095 17.0204 10.9056 16.8586 11.0435 16.6509C11.1814 16.4432 11.255 16.199 11.255 15.9492C11.255 15.6143 11.1228 15.293 10.8874 15.0562C10.652 14.8193 10.3327 14.6863 9.99986 14.6863Z" fill="black"/>
<path d="M2.44171 18.4199C1.95667 18.4172 1.48329 18.2699 1.08131 17.9968C0.679322 17.7237 0.36674 17.3368 0.182996 16.8851C-0.000747718 16.4335 -0.0474209 15.9371 0.0488657 15.4588C0.145152 14.9804 0.380084 14.5415 0.724021 14.1973C1.06796 13.8532 1.50549 13.6192 1.98142 13.525C2.45735 13.4308 2.95035 13.4805 3.39822 13.6679C3.84609 13.8553 4.22877 14.172 4.49797 14.578C4.76718 14.984 4.91085 15.4611 4.91085 15.9492C4.90995 16.2745 4.84537 16.5965 4.7208 16.8968C4.59623 17.197 4.4141 17.4697 4.18482 17.6991C3.95554 17.9285 3.68359 18.1103 3.38451 18.2339C3.08543 18.3576 2.76506 18.4208 2.44171 18.4199ZM2.44171 14.6862C2.19346 14.6862 1.95079 14.7603 1.74439 14.8991C1.53798 15.0378 1.3771 15.2351 1.2821 15.4659C1.18711 15.6966 1.16225 15.9506 1.21068 16.1956C1.25911 16.4406 1.37865 16.6656 1.55419 16.8422C1.72972 17.0189 1.95337 17.1391 2.19684 17.1879C2.44032 17.2366 2.69269 17.2116 2.92203 17.116C3.15138 17.0204 3.34741 16.8585 3.48533 16.6508C3.62324 16.4431 3.69686 16.199 3.69686 15.9492C3.69686 15.6142 3.56462 15.293 3.32923 15.0561C3.09385 14.8193 2.7746 14.6862 2.44171 14.6862Z" fill="black"/>
<path d="M17.5583 18.4199C17.072 18.4226 16.596 18.28 16.1904 18.0102C15.7848 17.7404 15.4679 17.3555 15.28 16.9043C15.092 16.4531 15.0414 15.9559 15.1346 15.4757C15.2278 14.9955 15.4606 14.554 15.8034 14.2071C16.1463 13.8602 16.5838 13.6235 17.0604 13.527C17.5371 13.4306 18.0315 13.4787 18.481 13.6653C18.9305 13.8518 19.3148 14.1685 19.5852 14.5751C19.8556 14.9817 20 15.4599 20 15.9492C19.9982 16.6015 19.7408 17.2268 19.2837 17.6894C18.8265 18.1519 18.2065 18.4144 17.5583 18.4199ZM17.5583 14.6862C17.31 14.6862 17.0673 14.7603 16.8609 14.8991C16.6545 15.0378 16.4936 15.2351 16.3987 15.4659C16.3037 15.6966 16.2788 15.9506 16.3272 16.1956C16.3757 16.4406 16.4952 16.6656 16.6707 16.8422C16.8463 17.0188 17.0699 17.1391 17.3134 17.1879C17.5569 17.2366 17.8092 17.2116 18.0386 17.116C18.2679 17.0204 18.464 16.8585 18.6019 16.6508C18.7398 16.4431 18.8134 16.199 18.8134 15.9492C18.8134 15.6142 18.6812 15.293 18.4458 15.0561C18.2104 14.8193 17.8911 14.6862 17.5583 14.6862Z" fill="black"/>
</svg>
