<svg width="20" height="20" viewBox="0 0 20 20" fill="none" xmlns="http://www.w3.org/2000/svg">
<path d="M0 0H20V20H0V0ZM4.77273 6.6888V12.6273C4.80927 12.8415 4.74174 13.0603 4.59082 13.2167L3.17949 14.9287V15.1544H7.1814V14.9287L5.77007 13.2167C5.61804 13.0606 5.54633 12.8432 5.57562 12.6273V7.49146L9.08827 15.1544H9.49599L12.5131 7.49146V13.5992C12.5131 13.7623 12.5131 13.7936 12.4065 13.9002L11.3213 14.9537V15.1795H16.5903V14.9537L15.5428 13.9253C15.4503 13.8548 15.4044 13.739 15.4236 13.6243V6.06798C15.4044 5.95332 15.4503 5.83747 15.5428 5.76698L16.6154 4.73857V4.51282H12.902L10.255 11.116L7.24413 4.51282H3.34885V4.73857L4.60337 6.24984C4.72652 6.36084 4.78942 6.52386 4.77273 6.6888Z" fill="black"/>
</svg>
