<svg width="20" height="18" viewBox="0 0 20 18" fill="none" xmlns="http://www.w3.org/2000/svg">
<path d="M19.9977 8.74721C19.9941 8.30892 19.8636 7.88105 19.6218 7.51547C19.38 7.1499 19.0373 6.8623 18.6354 6.68753C18.2334 6.51277 17.7894 6.45834 17.3571 6.53085C16.9249 6.60336 16.5229 6.79969 16.2 7.09605C14.4409 6.02375 12.4259 5.44397 10.3659 5.41737L11.6134 1.48212L14.9891 2.28018V2.32604C14.987 2.78423 15.1564 3.22664 15.464 3.56623C15.7716 3.90583 16.1951 4.11804 16.6513 4.16112C17.1074 4.20419 17.5632 4.07501 17.9289 3.799C18.2947 3.52298 18.5439 3.1201 18.6275 2.66961C18.7112 2.21912 18.6232 1.75363 18.381 1.3647C18.1388 0.975778 17.7598 0.691573 17.3186 0.567992C16.8774 0.444411 16.4059 0.490402 15.9969 0.696916C15.5878 0.90343 15.2709 1.25552 15.1084 1.68392L11.4392 0.821654C11.3627 0.804233 11.2824 0.816274 11.2144 0.855376C11.1464 0.894478 11.0957 0.957769 11.0722 1.03264L9.69627 5.4082C7.54509 5.3989 5.43348 5.98634 3.59616 7.10522C3.10959 6.75246 2.50281 6.60743 1.90931 6.70205C1.31581 6.79667 0.784206 7.12317 0.431442 7.60975C0.078678 8.09632 -0.0663482 8.70309 0.0282677 9.29659C0.122884 9.89009 0.449391 10.4217 0.935962 10.7745C0.895877 10.9955 0.874398 11.2195 0.871751 11.4441C0.871751 14.7556 4.91709 17.4433 9.89808 17.4433C14.8791 17.4433 18.9244 14.7556 18.9244 11.4441C18.9227 11.232 18.9043 11.0204 18.8694 10.8112C19.2283 10.6034 19.5234 10.301 19.7223 9.93707C19.9213 9.57313 20.0165 9.16155 19.9977 8.74721ZM16.8146 1.11519C17.0523 1.11339 17.2851 1.18209 17.4837 1.31262C17.6823 1.44316 17.8378 1.62965 17.9304 1.84853C18.023 2.0674 18.0487 2.30883 18.0041 2.54227C17.9595 2.77572 17.8467 2.9907 17.6799 3.16004C17.5131 3.32937 17.2999 3.44545 17.0672 3.49359C16.8344 3.54174 16.5926 3.51979 16.3724 3.43052C16.1521 3.34125 15.9633 3.18867 15.8297 2.99208C15.6962 2.79548 15.6239 2.5637 15.6221 2.32604C15.6221 2.00734 15.7487 1.70169 15.9741 1.47633C16.1994 1.25097 16.5051 1.12437 16.8238 1.12437L16.8146 1.11519ZM1.09191 10.0865C0.92145 9.95759 0.778052 9.79638 0.669898 9.61207C0.561745 9.42775 0.490953 9.22394 0.461566 9.01227C0.402216 8.58477 0.515118 8.15122 0.775433 7.80697C1.03575 7.46272 1.42216 7.23598 1.84965 7.17663C2.27714 7.11728 2.7107 7.23018 3.05495 7.49049C2.16886 8.13567 1.48992 9.025 1.10108 10.0498L1.09191 10.0865ZM9.90725 16.7828C5.27484 16.7828 1.51387 14.3703 1.51387 11.4074C1.51387 8.4445 5.24732 5.99528 9.90725 5.99528C14.5672 5.99528 18.2731 8.4445 18.2731 11.4074C18.2731 14.3703 14.4938 16.7828 9.90725 16.7828ZM18.7226 10.1415V10.0957C18.3456 9.06945 17.6759 8.17641 16.7962 7.52719C16.9636 7.36088 17.165 7.23281 17.3866 7.15181C17.6082 7.0708 17.8447 7.03878 18.0798 7.05795C18.315 7.07712 18.5432 7.14701 18.7488 7.26284C18.9543 7.37866 19.1323 7.53765 19.2705 7.72886C19.4087 7.92007 19.5039 8.13897 19.5494 8.37047C19.5949 8.60197 19.5897 8.84059 19.5341 9.06989C19.4785 9.29918 19.3739 9.51372 19.2275 9.69871C19.0811 9.88371 18.8963 10.0348 18.6859 10.1415H18.7226Z" fill="black"/>
<path d="M6.85256 8.96777C6.58949 8.96777 6.33233 9.04578 6.1136 9.19194C5.89486 9.33809 5.72438 9.54582 5.62371 9.78887C5.52304 10.0319 5.4967 10.2993 5.54802 10.5574C5.59934 10.8154 5.72602 11.0524 5.91204 11.2384C6.09806 11.4244 6.33506 11.5511 6.59307 11.6024C6.85108 11.6537 7.11852 11.6274 7.36157 11.5267C7.60461 11.4261 7.81234 11.2556 7.9585 11.0368C8.10465 10.8181 8.18266 10.5609 8.18266 10.2979C8.18266 9.94511 8.04252 9.60679 7.79308 9.35735C7.54364 9.10791 7.20532 8.96777 6.85256 8.96777ZM6.85256 11.0042C6.71286 11.0042 6.5763 10.9628 6.46015 10.8852C6.34399 10.8076 6.25346 10.6972 6.2 10.5682C6.14654 10.4391 6.13255 10.2971 6.1598 10.1601C6.18706 10.0231 6.25433 9.8972 6.35311 9.79842C6.45189 9.69964 6.57775 9.63237 6.71476 9.60512C6.85178 9.57786 6.9938 9.59185 7.12286 9.64531C7.25192 9.69877 7.36224 9.7893 7.43985 9.90546C7.51746 10.0216 7.55889 10.1582 7.55889 10.2979C7.55889 10.4852 7.48447 10.6649 7.35201 10.7973C7.21955 10.9298 7.03989 11.0042 6.85256 11.0042Z" fill="#FF4500"/>
<path d="M12.9893 8.96777C12.7262 8.96777 12.4691 9.04578 12.2503 9.19194C12.0316 9.33809 11.8611 9.54582 11.7604 9.78887C11.6598 10.0319 11.6334 10.2993 11.6847 10.5574C11.7361 10.8154 11.8627 11.0524 12.0488 11.2384C12.2348 11.4244 12.4718 11.5511 12.7298 11.6024C12.9878 11.6537 13.2552 11.6274 13.4983 11.5267C13.7413 11.4261 13.9491 11.2556 14.0952 11.0368C14.2414 10.8181 14.3194 10.5609 14.3194 10.2979C14.3194 9.94511 14.1792 9.60679 13.9298 9.35735C13.6804 9.10791 13.342 8.96777 12.9893 8.96777ZM12.9893 11.0042C12.8496 11.0042 12.713 10.9628 12.5969 10.8852C12.4807 10.8076 12.3902 10.6972 12.3367 10.5682C12.2833 10.4391 12.2693 10.2971 12.2965 10.1601C12.3238 10.0231 12.391 9.8972 12.4898 9.79842C12.5886 9.69964 12.7145 9.63237 12.8515 9.60512C12.9885 9.57786 13.1305 9.59185 13.2596 9.64531C13.3886 9.69877 13.499 9.7893 13.5766 9.90546C13.6542 10.0216 13.6956 10.1582 13.6956 10.2979C13.6956 10.4852 13.6212 10.6649 13.4887 10.7973C13.3563 10.9298 13.1766 11.0042 12.9893 11.0042Z" fill="#FF4500"/>
<path d="M13.1544 13.7927C13.1245 13.7621 13.0889 13.7379 13.0495 13.7214C13.0101 13.7048 12.9678 13.6963 12.9251 13.6963C12.8824 13.6963 12.8401 13.7048 12.8007 13.7214C12.7613 13.7379 12.7257 13.7621 12.6958 13.7927C12.3162 14.1083 11.8768 14.3441 11.404 14.486C10.9311 14.6279 10.4345 14.6728 9.94385 14.6182C9.45363 14.6795 8.95604 14.6386 8.48241 14.4981C8.00878 14.3576 7.56939 14.1205 7.19192 13.8018C7.13246 13.749 7.05507 13.7209 6.97556 13.7232C6.89605 13.7255 6.82044 13.7582 6.7642 13.8144C6.70796 13.8707 6.67533 13.9463 6.67299 14.0258C6.67065 14.1053 6.69877 14.1827 6.75161 14.2421C7.64677 14.9491 8.76788 15.3076 9.90715 15.2512C11.0754 15.326 12.2306 14.9703 13.1544 14.2513C13.1849 14.2214 13.2092 14.1857 13.2257 14.1464C13.2423 14.107 13.2508 14.0647 13.2508 14.022C13.2508 13.9793 13.2423 13.937 13.2257 13.8976C13.2092 13.8582 13.1849 13.8225 13.1544 13.7927Z" fill="black"/>
</svg>
