<svg width="20" height="20" viewBox="0 0 20 20" fill="none" xmlns="http://www.w3.org/2000/svg">
<path d="M10.0022 9.53268e-07C8.02373 -0.000862613 6.08948 0.585021 4.44406 1.68355C2.79863 2.78208 1.51595 4.3439 0.758235 6.17149C0.000523418 7.99907 -0.198176 10.0103 0.187267 11.9508C0.57271 13.8914 1.52498 15.674 2.92364 17.0732C4.32229 18.4725 6.10451 19.4256 8.04486 19.8119C9.98521 20.1981 11.9965 20.0003 13.8245 19.2434C15.6524 18.4865 17.2148 17.2045 18.314 15.5596C19.4132 13.9146 20 11.9806 20 10.0022C20 7.3502 18.9468 4.80676 17.0719 2.93112C15.1971 1.05547 12.6541 0.00115852 10.0022 9.53268e-07ZM13.342 14.8439C13.3066 14.931 13.2529 15.0095 13.1846 15.0741C13.1163 15.1387 13.035 15.188 12.9461 15.2186C12.8572 15.2492 12.7627 15.2604 12.6691 15.2515C12.5755 15.2426 12.4849 15.2138 12.4034 15.167L9.86245 13.2198L8.23399 14.7086C8.19593 14.7359 8.15169 14.7535 8.10522 14.7595C8.05875 14.7656 8.01149 14.7601 7.96767 14.7435L8.29511 11.9144C8.29511 11.9144 12.8662 7.80616 13.0539 7.63152C13.2416 7.45689 13.1805 7.41759 13.1805 7.41759C13.1805 7.20367 12.8443 7.41759 12.8443 7.41759L6.78452 11.2639L4.26105 10.4126C4.15817 10.381 4.06459 10.3247 3.98849 10.2486C3.91239 10.1724 3.85607 10.0789 3.82447 9.97599C3.78518 9.67474 4.26105 9.51321 4.26105 9.51321L14.3025 5.58393C14.3025 5.58393 15.1277 5.22157 15.1277 5.81969L13.342 14.8439Z" fill="#38B6E5"/>
</svg>
