<svg width="20" height="18" viewBox="0 0 20 18" fill="none" xmlns="http://www.w3.org/2000/svg">
<path d="M20 2.79908C19.2639 3.12526 18.474 3.34647 17.6441 3.44523C18.4915 2.93781 19.1401 2.13297 19.4475 1.17689C18.6527 1.64679 17.7754 1.988 16.8405 2.17297C16.0919 1.37437 15.0271 0.876953 13.8461 0.876953C11.5803 0.876953 9.7431 2.71411 9.7431 4.97869C9.7431 5.29987 9.77935 5.61356 9.84935 5.91353C6.44 5.74229 3.41683 4.10885 1.39346 1.62679C1.03977 2.23169 0.838562 2.93653 0.838562 3.68892C0.838562 5.11242 1.56343 6.36843 2.66324 7.10327C1.99085 7.08079 1.35846 6.89582 0.804837 6.58837V6.63961C0.804837 8.62674 2.21957 10.2852 4.09546 10.6626C3.75176 10.7551 3.38935 10.8064 3.01441 10.8064C2.74948 10.8064 2.49327 10.7801 2.24206 10.7301C2.76444 12.3611 4.27918 13.5471 6.07386 13.5796C4.67036 14.6794 2.90069 15.333 0.978562 15.333C0.647386 15.333 0.321176 15.313 0 15.2768C1.81591 16.4428 3.97176 17.1227 6.28882 17.1227C13.8361 17.1227 17.9616 10.8714 17.9616 5.44987L17.9479 4.91873C18.754 4.34379 19.4513 3.62144 20 2.79908Z" fill="#00B8F6"/>
</svg>
